<svg width="62" height="57" viewBox="0 0 62 57" fill="none" xmlns="http://www.w3.org/2000/svg">
<path d="M58.2501 16.8659L15.2088 12.1108L12.5851 2.18566C12.4932 1.85313 12.2953 1.55957 12.0212 1.34955C11.7471 1.13952 11.4119 1.0245 11.0664 1.02192H4.60515C4.37208 0.707612 4.06903 0.451683 3.71991 0.274334C3.37079 0.0969852 2.98517 0.00306996 2.59347 0C1.90564 0 1.24598 0.272791 0.759609 0.758364C0.27324 1.24394 0 1.90251 0 2.58922C0 3.27592 0.27324 3.9345 0.759609 4.42007C1.24598 4.90564 1.90564 5.17843 2.59347 5.17843C3.42906 5.17843 4.13513 4.76132 4.60933 4.15234H9.85685L20.7822 45.4463C19.5901 46.7126 18.9254 48.3844 18.923 50.1222C18.9222 51.0241 19.0995 51.9174 19.4448 52.7508C19.7901 53.5843 20.2965 54.3416 20.9353 54.9795C21.574 55.6173 22.3324 56.1232 23.1671 56.4682C24.0019 56.8132 24.8965 56.9904 25.7999 56.9899C27.6253 56.9904 29.3762 56.2673 30.6677 54.9795C31.9592 53.6917 32.6856 51.9445 32.6873 50.1222C32.6835 49.5998 32.6183 49.0797 32.493 48.5726H44.0514C43.9286 49.0802 43.8641 49.6 43.8592 50.1222C43.8592 53.9179 46.9425 56.9899 50.7444 56.9899C54.5464 56.9899 57.6235 53.9179 57.6235 50.1222C57.624 48.2994 56.8994 46.5511 55.609 45.2616C54.3186 43.9722 52.5681 43.2472 50.7424 43.2461C48.7578 43.2461 46.9822 44.1012 45.7246 45.4422H30.8177C30.1776 44.7512 29.4016 44.1995 28.5382 43.8216C27.6748 43.4438 26.7426 43.2478 25.7999 43.2461C25.0061 43.2461 24.2583 43.4088 23.5501 43.6549L23.1699 42.2242H53.6335C54.8042 42.2003 55.933 41.7843 56.8384 41.0429C57.7439 40.3016 58.3735 39.278 58.6262 38.1365L61.9163 21.8733C61.9741 21.5892 62.0021 21.2998 61.9999 21.0099C62.0014 19.9775 61.6185 18.9814 60.9256 18.2152C60.2326 17.449 59.279 16.9694 58.2501 16.8659ZM50.7465 50.7353C50.5832 50.7337 50.427 50.6685 50.3111 50.5536C50.1952 50.4387 50.1288 50.2831 50.1261 50.1201C50.1324 49.7739 50.4081 49.4986 50.7486 49.4986C51.0891 49.4986 51.3649 49.7739 51.369 50.118C51.3658 50.2807 51.2992 50.4357 51.1834 50.5502C51.0675 50.6646 50.9116 50.7295 50.7486 50.7311L50.7465 50.7353ZM54.4649 35.1041L56.4453 33.1228L55.781 36.418L54.4649 35.1041ZM24.2729 16.2569L26.435 18.4217L23.7402 21.1121L21.0392 18.4217L23.3099 16.1526L24.2729 16.2569ZM33.6691 17.2955L34.793 18.4217L32.0982 21.1121L29.3972 18.4217L30.8344 16.9827L33.6691 17.2955ZM17.7448 21.7086L19.5622 19.8983L22.257 22.5928L19.5622 25.2832L18.382 24.109L17.7469 21.7065L17.7448 21.7086ZM17.1286 19.3727L16.4434 16.7866L18.0833 18.4238L17.1286 19.3727ZM43.1468 26.7639L40.452 29.4543L37.751 26.7639L40.45 24.0673L43.1468 26.7639ZM41.929 22.5928L44.6279 19.8983L47.3227 22.5928L44.6279 25.2874L41.929 22.5928ZM36.2741 25.2832L33.573 22.5928L36.272 19.8962L38.9668 22.5907L36.2741 25.2832ZM34.7909 26.7639L32.0961 29.4543L29.3972 26.7639L32.0961 24.0673L34.7909 26.7639ZM27.9182 25.2832L25.2171 22.5928L27.9161 19.8962L30.6109 22.5907L27.9182 25.2832ZM26.435 26.7639L23.7402 29.4543L21.0392 26.7639L23.7381 24.0673L26.435 26.7639ZM19.5622 28.2384L22.257 30.933L20.6193 32.5659L19.4912 28.3031L19.5602 28.2343L19.5622 28.2384ZM21.2376 34.9059L23.7381 32.4095L26.4329 35.1041L23.7381 37.7944L21.3776 35.4378L21.2376 34.9059ZM25.2192 30.933L27.914 28.2363L30.615 30.9309L27.9203 33.6212L25.2213 30.9309L25.2192 30.933ZM32.0961 32.4074L34.7951 35.102L32.0961 37.7924L29.3972 35.102L32.0961 32.4074ZM33.5751 30.9309L36.2741 28.2343L38.9689 30.9288L36.2741 33.6192L33.5751 30.9309ZM40.4479 32.4054L43.1489 35.0999L40.4541 37.7903L37.7552 35.0957L40.4479 32.4054ZM41.931 30.9288L44.6258 28.2322L47.3269 30.9267L44.6321 33.6171L41.931 30.9288ZM46.109 26.7577L48.8038 24.0611L51.5048 26.7556L48.81 29.446L46.109 26.7577ZM50.287 22.5866L52.9817 19.8899L55.6807 22.5928L52.9859 25.2874L50.2849 22.5907L50.287 22.5866ZM48.8038 21.11L46.391 18.6991L50.7403 19.1788L48.8038 21.11ZM43.151 18.4217L40.4562 21.1163L37.7552 18.4217L38.361 17.8169L43.0674 18.3383L43.151 18.4217ZM27.9223 16.941L27.6048 16.6281L28.1751 16.6907L27.9244 16.941H27.9223ZM19.5664 16.9451L18.2086 15.5895L20.6527 15.8607L19.5664 16.9451ZM27.9223 36.5806L30.4396 39.0937H25.4051L27.9223 36.5806ZM36.2783 36.5806L38.7955 39.0958H33.7569L36.2783 36.5806ZM44.6342 36.5806L47.1556 39.0979H42.1128L44.6342 36.5806ZM46.1111 35.1041L48.81 32.4074L51.5048 35.102L48.81 37.7924L46.1111 35.1041ZM50.289 30.933L52.988 28.2384L55.6828 30.9288L52.988 33.6254L50.287 30.935L50.289 30.933ZM57.166 29.4522L54.467 26.7619L57.1618 24.0673L58.0914 24.9933L57.1931 29.423L57.1639 29.4543L57.166 29.4522ZM58.2105 20.0672L57.166 21.11L55.7872 19.7398L57.9117 19.9734C58.0245 19.9901 58.1206 20.0276 58.2125 20.0651L58.2105 20.0672ZM25.8041 50.7332C25.6461 50.7241 25.4975 50.6549 25.3889 50.54C25.2802 50.425 25.2197 50.2729 25.2197 50.1149C25.2197 49.9568 25.2802 49.8047 25.3889 49.6898C25.4975 49.5748 25.6461 49.5057 25.8041 49.4965C25.9616 49.5056 26.1097 49.5746 26.2179 49.6891C26.3262 49.8037 26.3865 49.9553 26.3865 50.1128C26.3865 50.2703 26.3262 50.4218 26.2179 50.5364C26.1097 50.651 25.9616 50.7199 25.8041 50.7291V50.7332ZM53.6356 39.0958H50.4666L52.988 36.5786L54.9308 38.5181C54.5401 38.8727 54.0471 39.1229 53.6356 39.0958Z" fill="#06D6A0"/>
</svg>
