<svg width="63" height="64" viewBox="0 0 63 64" fill="none" xmlns="http://www.w3.org/2000/svg">
<path d="M38.541 0L48.081 13.3638L54.372 11.2195L60.114 28.0112H63V64H0V28.0112H1.53V27.9813L3.474 27.9993L38.541 0ZM23.691 28.0112H53.775L50.664 18.9151L46.098 20.3756L23.691 28.0112ZM19.017 23.2637L42.15 15.3852L37.338 8.6373L19.017 23.2637ZM12 34.0094H6V40.0075C7.5913 40.0075 9.11742 39.3756 10.2426 38.2507C11.3679 37.1258 12 35.6002 12 34.0094ZM42 46.0056C42 44.6272 41.7284 43.2622 41.2007 41.9887C40.6731 40.7152 39.8996 39.558 38.9246 38.5833C37.9496 37.6086 36.7921 36.8354 35.5182 36.3079C34.2443 35.7804 32.8789 35.5089 31.5 35.5089C30.1211 35.5089 28.7557 35.7804 27.4818 36.3079C26.2079 36.8354 25.0504 37.6086 24.0754 38.5833C23.1004 39.558 22.3269 40.7152 21.7993 41.9887C21.2716 43.2622 21 44.6272 21 46.0056C21 48.7895 22.1062 51.4594 24.0754 53.4279C26.0445 55.3964 28.7152 56.5023 31.5 56.5023C34.2848 56.5023 36.9555 55.3964 38.9246 53.4279C40.8938 51.4594 42 48.7895 42 46.0056ZM57 58.0019V52.0037C55.4087 52.0037 53.8826 52.6357 52.7574 53.7606C51.6321 54.8854 51 56.4111 51 58.0019H57ZM51 34.0094C51 35.6002 51.6321 37.1258 52.7574 38.2507C53.8826 39.3756 55.4087 40.0075 57 40.0075V34.0094H51ZM6 58.0019H12C12 56.4111 11.3679 54.8854 10.2426 53.7606C9.11742 52.6357 7.5913 52.0037 6 52.0037V58.0019Z" fill="#06D6A0"/>
</svg>
