<svg width="59" height="61" viewBox="0 0 59 61" fill="none" xmlns="http://www.w3.org/2000/svg">
<path d="M1.47719 4.19038C2.16333 1.5806 4.54956 0.00340326 7.05815 0.00340326C8.60526 0.00340326 10.0125 0.582871 11.0833 1.52832C12.2638 0.541103 13.7554 0 15.2963 0C16.8372 0 18.3288 0.541103 19.5093 1.52832C20.6171 0.54358 22.0502 0.000642606 23.5344 0.00340326C26.043 0.00340326 28.4293 1.5806 29.1154 4.19038C29.771 6.68253 30.5926 10.6996 30.5926 15.2526C30.5925 17.795 29.9547 20.2972 28.7372 22.5313C27.5198 24.7654 25.7613 26.6606 23.6219 28.0444C22.4375 28.8156 21.8519 29.809 21.8519 30.6586V32.3839C21.8519 32.4826 21.8577 32.5785 21.8693 32.6714C22.0179 33.7519 22.5555 37.7647 23.0581 41.9255C23.5519 46.0079 24.037 50.4607 24.037 52.2862C24.037 54.5972 23.1161 56.8136 21.4769 58.4478C19.8377 60.0819 17.6145 61 15.2963 61C12.9781 61 10.7549 60.0819 9.11566 58.4478C7.47645 56.8136 6.55556 54.5972 6.55556 52.2862C6.55556 50.4563 7.04067 46.0123 7.53452 41.9255C8.03711 37.7647 8.57467 33.7519 8.72326 32.6714L8.74074 32.3839V30.6586C8.74074 29.809 8.15511 28.8156 6.97074 28.0444C4.83125 26.6606 3.07279 24.7654 1.85534 22.5313C0.637898 20.2972 0.000109076 17.795 0 15.2526C0 10.6996 0.82163 6.68253 1.47719 4.19038ZM21.8519 17.431C21.8519 18.0088 21.6216 18.5629 21.2118 18.9714C20.802 19.3799 20.2462 19.6095 19.6667 19.6095C19.0871 19.6095 18.5313 19.3799 18.1215 18.9714C17.7117 18.5629 17.4815 18.0088 17.4815 17.431V6.53875C17.4815 5.96099 17.2513 5.40689 16.8415 4.99836C16.4317 4.58982 15.8758 4.3603 15.2963 4.3603C14.7167 4.3603 14.1609 4.58982 13.7511 4.99836C13.3413 5.40689 13.1111 5.96099 13.1111 6.53875V17.431C13.1111 18.0088 12.8809 18.5629 12.4711 18.9714C12.0613 19.3799 11.5055 19.6095 10.9259 19.6095C10.3464 19.6095 9.79057 19.3799 9.38077 18.9714C8.97097 18.5629 8.74074 18.0088 8.74074 17.431V6.03771C8.74074 5.59283 8.56347 5.16618 8.24792 4.8516C7.93237 4.53703 7.5044 4.3603 7.05815 4.3603C6.33267 4.3603 5.83444 4.79164 5.70333 5.29704C4.84207 8.5467 4.39424 11.8915 4.37037 15.2526C4.37016 17.0695 4.8259 18.8577 5.69609 20.4542C6.56628 22.0507 7.82327 23.4049 9.35259 24.3933C11.2712 25.635 13.1111 27.8179 13.1111 30.6586V32.3839C13.1111 32.6743 13.0922 32.9648 13.0543 33.2553C12.9057 34.3271 12.3725 38.3136 11.8743 42.4483C11.3673 46.6527 10.9259 50.7874 10.9259 52.2862C10.9259 53.4417 11.3864 54.5499 12.206 55.367C13.0256 56.1841 14.1372 56.6431 15.2963 56.6431C16.4554 56.6431 17.567 56.1841 18.3866 55.367C19.2062 54.5499 19.6667 53.4417 19.6667 52.2862C19.6667 50.7874 19.2296 46.6527 18.7183 42.444C18.2201 38.3136 17.6869 34.3271 17.5383 33.2509C17.5051 32.9645 17.4861 32.6766 17.4815 32.3882V30.6629C17.4815 27.8222 19.3214 25.6394 21.24 24.3977C22.7699 23.4088 24.0273 22.054 24.8975 20.4567C25.7678 18.8593 26.2232 17.0703 26.2222 15.2526C26.2222 11.1919 25.488 7.56698 24.8893 5.29704C24.7581 4.79599 24.2556 4.3603 23.5344 4.3603C23.0882 4.3603 22.6602 4.53703 22.3447 4.8516C22.0291 5.16618 21.8519 5.59283 21.8519 6.03771V17.431ZM34.963 19.6095C34.963 14.4096 37.035 9.42273 40.7232 5.74588C44.4114 2.06903 49.4137 0.00340326 54.6296 0.00340326C55.2092 0.00340326 55.765 0.232918 56.1748 0.641456C56.5846 1.04999 56.8148 1.60409 56.8148 2.18185V28.2056L56.8979 28.9768C57.2455 32.2285 57.5791 35.4817 57.8987 38.7362C58.4362 44.2085 59 50.343 59 52.2862C59 54.5972 58.0791 56.8136 56.4399 58.4478C54.8007 60.0819 52.5774 61 50.2593 61C47.9411 61 45.7178 60.0819 44.0786 58.4478C42.4394 56.8136 41.5185 54.5972 41.5185 52.2862C41.5185 50.343 42.0823 44.2085 42.6199 38.7362C42.8952 35.9609 43.1705 33.3032 43.3759 31.3339L43.4633 30.5017H39.3333C38.1742 30.5017 37.0626 30.0427 36.243 29.2256C35.4234 28.4085 34.963 27.3003 34.963 26.1448V19.6095ZM48.061 28.5542L47.9692 29.4343C47.6276 32.6763 47.2954 35.9193 46.9727 39.1632C46.4177 44.7705 45.8889 50.6219 45.8889 52.2862C45.8889 53.4417 46.3493 54.5499 47.1689 55.367C47.9885 56.1841 49.1002 56.6431 50.2593 56.6431C51.4184 56.6431 52.53 56.1841 53.3496 55.367C54.1692 54.5499 54.6296 53.4417 54.6296 52.2862C54.6296 50.6175 54.1008 44.7705 53.5458 39.1632C53.2252 35.9191 52.8931 32.6761 52.5493 29.4343L52.4576 28.5585L52.4444 28.3233V4.51279C48.8033 5.03673 45.4735 6.85138 43.0654 9.62411C40.6574 12.3968 39.3324 15.9419 39.3333 19.6095V26.1448H45.8889C46.1953 26.1449 46.4983 26.2093 46.7782 26.3337C47.058 26.4581 47.3085 26.6399 47.5133 26.8671C47.7182 27.0943 47.8728 27.3619 47.9671 27.6526C48.0615 27.9432 48.0934 28.2504 48.061 28.5542Z" fill="#06D6A0"/>
</svg>
